<?xml version="1.0" encoding="UTF-8"?>
<svg id="a" xmlns="http://www.w3.org/2000/svg" viewBox="0 0 50 50">
  <defs>
    <style>
      .cls-1 {
        fill: #b4ce00;
      }

      .cls-1, .cls-2, .cls-3, .cls-4, .cls-5, .cls-6 {
        stroke-width: 0px;
      }

      .cls-2 {
        fill: #fff;
      }

      .cls-3 {
        fill: #00c1d6;
      }

      .cls-4 {
        fill: #004697;
      }

      .cls-5 {
        fill: #0382e2;
      }

      .cls-6 {
        fill: #0060c7;
      }
    </style>
  </defs>
  <g>
    <path class="cls-4" d="M11.7108214556,19.3406515299c2.7771889811-3.5706908484,4.5427316967-7.7721020889,6.6944471462-11.6996199128,1.3730468514-2.5063267137,2.2426028725-4.9833682365,3.6243619304-6.921622591C11.6091637696,2.2235444965,3.9103250461,11.4817460333,4.3832087343,22.0032146017c0,.0015219184.0001221317.0030702375.0002524044.0045921559.0415653026.831973791.1507342804,1.6602421765.3218644712,2.4750617726,2.4613336171-1.5526534145,5.1816218141-2.7971612269,7.0054958457-5.1422170003h0Z"/>
    <g>
      <path class="cls-6" d="M33.1508021671,2.1889406527c-.2071921111-.0860210037-.4133561508-.1738740361-.6213558104-.2584132076-.0034848826-.001726135-.0069697652-.0027194586-.0104546478-.0042257502-.4685520944-.1785394731-.9395703178-.3502558404-1.4186919804-.499760643,0-.0000244594-.0001304501-.0000569749-.0002515824-.0000895874-.0034848826-.0009933235-.0074667182-.0019948002-.0104546478-.0032405798-.4826779822-.1509215553-.9734019433-.2761466632-1.4647517545-.3963074614-.0024909767-.000480404-.0049741885-.0012620373-.0084590711-.0019948002-.5020560415-.1096249102-1.0046432014-.2126384777-1.5135463229-.2897602381-.5125200072-.0788723063-1.030004885-.1313886956-1.5468965251-.1770087585-.0009939059-.0002361194-.0029879296-.0002361194-.0039818356-.0002361194-1.5206791508-.1135738299-3.0546222865-.06013738-4.5633248711.1615062468-1.3817590579,1.9382540148-2.8041145134,4.0534597283-4.1771535999,6.5597868303-2.151714673,3.927517824-3.7636747639,8.0117225854-6.5408645215,11.5824134338-1.8238740316,2.3450573264-4.1449603663,4.0685957797-6.6063023549,5.6212491943.3672565331,1.7678573391,1.0334493901,3.4627837259,1.8934319156,5.0471846695h-.0002523589c.1934719388.3552219728.3955665938.7058533427.6067882946,1.0513288257.0016203384.0025065065.0029881238.0050223308.0046084622.0075319432.1189476312.1946036715.2416567692.3873748291.3660351644.5793322261,7.6142021512-4.7187655437,15.9202358068-7.5480631482,20.9576413739-14.0042430035-.0001133674.0001304502-.0002205229.0002609003-.0003338903.0003913505,1.2944925659-1.6446595954,2.3396514101-3.4806491847,3.11681129-5.4235597555,1.1745762647-2.9562745201,1.7702333954-6.1145860408,2.2112170246-9.2481461984-.2210011914-.1051711635-.4445399488-.2066134327-.6694422208-.3037401702l-.0000155298.000001553Z"/>
      <path class="cls-5" d="M44.5476820973,14.5860597329c.0018728915-.0007485354.003736465-.0015063886.0054789063-.002254924-.2569246782-.7596795597-.5583577054-1.5029053177-.8991618306-2.228226016-.0123834465-.0250774885-.0233350472-.0509532078-.035345779-.0761774527-.0005062708-.0005132592-.0005062708-.0007330056-.0005062708-.0007330056l-.0007423235.0001219088c-1.15881975-2.4227566976-2.7933104456-4.610915105-4.7784946301-6.4188229699-.0008696677-.0007163111-.0014908589-.001465623-.0023605265-.0021737809-.3662077391-.3336134489-.7493398323-.6485733026-1.1356555304-.9586808767-.0004876351-.0004802584-.0009939059-.0012132641-.0014908589-.0014819292-.3923505705-.3019245448-.7905061728-.5961304008-1.2001351764-.8745486825-.0002453705-.0001386033-.0004876351-.0003094309-.0007423235-.0004476459-.0014908589-.0009935177-.0034848826-.0019948002-.0049757415-.00324883-.0027363472-.0018969626-.0057242769-.0036394039-.008466836-.0055367548.000496953.0002768183.0009939059.0005291772.0014908589.0008059956-.4081381448-.2760734791-.829507662-.5307739045-1.2531538449-.7819325696-.0029879296-.0012132641-.0054726944-.0027194586-.0084606241-.0042338062-.4608741712-.2589342317-.9265346206-.5093845446-1.4047027547-.7358075704-.5151973412,3.6445485402-1.6120594815,7.3411086427-3.2228548389,10.6825760578-2.6122068117,5.5268591922-7.2302788157,8.9230481161-12.2302389776,11.8490838253-3.5164818223,2.057886849-7.3377215977,3.7967718308-10.8322443113,6.143889959.2464117937.3802994614.502691986.755707042.7683187763,1.1262538016,5.7806631611,3.3513761911,10.8587707283,5.7351974011,14.5507212038,8.6727950314,3.102562717-12.6412842971,10.4775262798-15.8653333761,21.6008988329-20.367568752.427590747-.1747131295.8039735979-.3732567062,1.1359505962-.5944287251-.1048943451-1.8842809928-.4653840193-3.7011037278-1.0431384198-5.4192284999l.0000124238.0000062119Z"/>
      <g>
        <path class="cls-3" d="M23.4968309846,37.5034335352c-.390763427,1.1857949777-.6428661085,2.3487456491-.6428661085,3.4638428569,2.1033673623,1.6735946812,3.7566646213,3.527188829,4.8336424314,5.8418341875,4.2044471881-4.1769579247,7.8395990467-8.061241618,11.6513058668-12.3366397114,0,0,0,.0000155298-.0001304501.0000155298,3.5668643106-4.0176348071,6.7221459713-8.8126903944,6.2520315811-14.4672012712-2.7609619141,1.2471220784-5.6614713241,2.3465062549-8.3467038197,3.6289974069-6.1091389706,2.917795608-11.4265169621,6.6053107784-13.7472795009,13.8691510014Z"/>
        <path class="cls-1" d="M22.8539648761,40.96728571c-3.6919520285-2.9375976303-8.7700595957-5.3214157343-14.5507219803-8.6727950314,1.5913283901,2.2208579119,3.5050340451,4.2743948696,5.4266532876,6.2406575703,1.3359275716,1.3651825709,2.7281008999,2.760123306,4.0794743905,4.0960260299h-.0001226853c2.872923862,2.8404122679,5.5990866454,5.4571211627,7.1325747586,6.9174919664.9052526103-.8984536727,1.838342351-1.8289794467,2.7457846602-2.7395494536-1.0769762571-2.3146453585-2.730282834-4.1682395063-4.8336424314-5.8418310816Z"/>
      </g>
    </g>
  </g>
  <g>
    <path class="cls-2" d="M31.6595028413,39.8471288942c-.3219081494-2.2743323943-.6465781774-4.5482729004-.977443771-6.8212990007-.0217964475-.1498319149-.0974495279-.2936175549-.1591439245-.4353877701-.0940531637-.2161543243-.256294871-.4195629521-.2888402514-.6430511838-.8762619747-6.0138040712-1.7381920388-12.0296982128-2.6068401859-18.0446219645-.1194325888-.8272386293-.3423236575-1.6192073222-.9152268568-2.2777660812.1406318733-.2697870212.2732766922-.4970261827.3808406674-.7355741174.3847222266-.8532338787.5412908859-1.7390691218.2357300721-2.6453385345-.6113828864-1.8135465377-2.1397094731-2.5747240164-3.7725022523-3.2819702166.002948492.142964541.0045906901.2213235161.0061582429.2996638298.0519531761,2.5816473742-.3369865137,5.099696895-1.0864260082,7.5665583546-.1029732851.3389832773-.2142322061.6790675739-.2745829861,1.0268216819-1.0479089984,6.0361043749-2.0879429104,12.0735710278-3.1339111292,18.1100113069-.0210499938.1214480137-.0860287866.2372043181-.1412663589.350366696-.0886040518.1815002122-.2335280337.3490790634-.2717837848.5392194769-.160860768.7988547281-.290892999,1.6039050218-.432271326,2.4066599704-.2577504556,1.4630865351-.5175163362,2.9258185046-.7722809771,4.389408896-.0913659304.5248502436.0617317193.7333347564.5805916721.8188783481.2464043597.0406070802.4918383296.087633662.7390264657.122772969.4616816009.0656692625.659379858-.0737496236.739810242-.5391821543.3962922586-2.2929190909.7895613798-4.5863606994,1.1776799706-6.8806793909.0231773868-.1368809435-.0019407796-.283577753-.0154142685-.4246574984-.0214232206-.2238241359-.1068175216-.456120521-.0706145181-.6687291904.9044406011-5.3136305196,1.8214589467-10.6251149848,2.7357154137-15.937084645.0582607097-.3385913892.085506269-.4785701155.2105372604-.5401898667h.7391757564c.1681386914,0,.3057474272-.1375900745.3057474272-.3057474272v-.8013553479c0-.1681760141-.1376087359-.3057474272-.3057474272-.3057474272h-.553084854c.0126897126-.3857112777.0529982113-.357737926.3935677027-.5128323394.5411415952-.2464603437,1.0470878993-.5701973047,1.6499238911-.9067919302.1322715921.4950107578.2517041808.94224848.3792731147,1.4196242696h-.5387902661c-.1681386914,0-.3057474272.1375714132-.3057474272.3057474272v.8013553479c0,.1681573527.1376087359.3057474272.3057474272.3057474272h.718200408c.0170937893.1079931861.0325080578.204024452.0457202879.2955023505.7803426768,5.3913176863,1.5602374815,10.782710018,2.3413639347,16.1739157363.0407190482.2809465037.1341750489.5585339659-.0934933234.8171988273-.0558347352.0634672241-.0513560132.2028487875-.0370987479.3019405135.3394124882,2.3647279349.6815122097,4.7291013043,1.0301807235,7.0925042839.0526249844.3567488749.2837270437.5232453682.6436670081.4810147513.2735006283-.0320788469.5452844131-.0800571572.8169935525-.1259827198.4978846044-.0841813137.6486682477-.2834657849.5768594037-.7909236578Z"/>
    <circle class="cls-1" cx="24.8473364719" cy="10.9942851671" r=".9237673991"/>
  </g>
</svg>