<?xml version="1.0" encoding="UTF-8"?>
<svg id="Layer_1" data-name="Layer 1" xmlns="http://www.w3.org/2000/svg" viewBox="0 0 41.2749 49.048641914">
  <defs>
    <style>
      .cls-1 {
        fill: #b4ce00;
      }

      .cls-1, .cls-2, .cls-3, .cls-4, .cls-5, .cls-6 {
        stroke-width: 0px;
      }

      .cls-2 {
        fill: #fff;
      }

      .cls-3 {
        fill: #00c1d6;
      }

      .cls-4 {
        fill: #004697;
      }

      .cls-5 {
        fill: #0382e2;
      }

      .cls-6 {
        fill: #0060c7;
      }
    </style>
  </defs>
  <path class="cls-4" d="M7.3482704202,18.8406271988c2.7771889811-3.5706908484,4.5427316967-7.7721020889,6.6944471462-11.6996199128,1.3730468514-2.5063267137,2.2426028725-4.9833682365,3.6243619304-6.921622591C7.2466127342,1.7235201653-.4522259893,10.9817217021.0206576989,21.5031902706c0,.0015219184.0001221317.0030702375.0002524044.0045921559.0415653026.831973791.1507342804,1.6602421765.3218644713,2.4750617726,2.4613336171-1.5526534145,5.1816218141-2.7971612269,7.0054958457-5.1422170003h0Z"/>
  <g>
    <path class="cls-6" d="M28.7882511317,1.6889163216c-.2071921111-.0860210037-.4133561508-.1738740361-.6213558104-.2584132076-.0034848826-.001726135-.0069697652-.0027194586-.0104546478-.0042257502-.4685520944-.1785394731-.9395703178-.3502558404-1.4186919804-.499760643,0-.0000244594-.0001304502-.0000569749-.0002515824-.0000895874-.0034848826-.0009933235-.0074667182-.0019948002-.0104546478-.0032405798-.4826779822-.1509215553-.9734019433-.2761466632-1.4647517545-.3963074614-.0024909767-.000480404-.0049741885-.0012620373-.0084590711-.0019948002-.5020560415-.1096249102-1.0046432014-.2126384777-1.5135463229-.2897602381-.5125200072-.0788723063-1.0300048849-.1313886956-1.5468965251-.1770087585-.0009939059-.0002361194-.0029879296-.0002361194-.0039818356-.0002361194-1.5206791508-.1135738299-3.0546222865-.06013738-4.5633248711.1615062468-1.3817590579,1.9382540148-2.8041145134,4.0534597283-4.1771535999,6.5597868303-2.151714673,3.927517824-3.7636747639,8.0117225854-6.5408645215,11.5824134338-1.8238740316,2.3450573264-4.1449603663,4.0685957797-6.6063023549,5.6212491943.3672565331,1.7678573391,1.0334493901,3.4627837259,1.8934319156,5.0471846695h-.0002523589c.1934719388.3552219728.3955665938.7058533427.6067882946,1.0513288257.0016203384.0025065065.0029881238.0050223308.0046084622.0075319432.1189476312.1946036715.2416567692.3873748291.3660351644.5793322261,7.6142021512-4.7187655437,15.9202358068-7.5480631482,20.9576413739-14.0042430035-.0001133674.0001304502-.0002205229.0002609003-.0003338903.0003913505,1.2944925659-1.6446595954,2.3396514101-3.4806491847,3.11681129-5.4235597555,1.1745762647-2.9562745201,1.7702333954-6.1145860408,2.2112170246-9.2481461984-.2210011914-.1051711635-.4445399488-.2066134327-.6694422208-.3037401702l-.0000155298.000001553Z"/>
    <path class="cls-5" d="M40.185131062,14.0860354018c.0018728915-.0007485354.003736465-.0015063886.0054789063-.002254924-.2569246782-.7596795597-.5583577054-1.5029053177-.8991618306-2.228226016-.0123834465-.0250774885-.0233350472-.0509532078-.035345779-.0761774527-.0005062708-.0005132592-.0005062708-.0007330056-.0005062708-.0007330056l-.0007423235.0001219088c-1.15881975-2.4227566976-2.7933104456-4.610915105-4.7784946301-6.4188229699-.0008696677-.0007163111-.0014908589-.001465623-.0023605265-.0021737809-.3662077391-.3336134489-.7493398323-.6485733026-1.1356555304-.9586808767-.0004876351-.0004802584-.0009939059-.0012132641-.0014908589-.0014819292-.3923505705-.3019245448-.7905061728-.5961304008-1.2001351764-.8745486825-.0002453705-.0001386033-.0004876351-.0003094309-.0007423235-.0004476459-.0014908589-.0009935177-.0034848826-.0019948002-.0049757415-.0032488299-.0027363472-.0018969626-.0057242769-.0036394039-.008466836-.0055367548.000496953.0002768183.0009939059.0005291772.0014908589.0008059956-.4081381447-.2760734791-.8295076619-.5307739045-1.2531538449-.7819325696-.0029879296-.0012132641-.0054726944-.0027194586-.0084606241-.0042338062-.4608741712-.2589342317-.9265346206-.5093845446-1.4047027547-.7358075704-.5151973412,3.6445485402-1.6120594815,7.3411086427-3.2228548389,10.6825760578-2.6122068117,5.5268591922-7.2302788157,8.9230481161-12.2302389776,11.8490838253-3.5164818223,2.057886849-7.3377215977,3.7967718308-10.8322443113,6.143889959.2464117937.3802994614.502691986.7557070421.7683187763,1.1262538016,5.7806631611,3.3513761911,10.8587707283,5.7351974011,14.5507212038,8.6727950314,3.102562717-12.6412842971,10.4775262798-15.8653333761,21.6008988329-20.367568752.427590747-.1747131295.8039735979-.3732567062,1.1359505962-.5944287251-.1048943451-1.8842809928-.4653840193-3.7011037278-1.0431384198-5.4192284999l.0000124238.0000062119Z"/>
    <g>
      <path class="cls-3" d="M19.1342799493,37.003409204c-.390763427,1.1857949777-.6428661085,2.3487456491-.6428661085,3.4638428569,2.1033673623,1.6735946812,3.7566646213,3.527188829,4.8336424314,5.8418341875,4.2044471881-4.1769579247,7.8395990467-8.061241618,11.6513058668-12.3366397114,0,0,0,.0000155298-.0001304501.0000155298,3.5668643106-4.0176348071,6.7221459713-8.8126903944,6.2520315811-14.4672012712-2.7609619141,1.2471220784-5.6614713241,2.3465062549-8.3467038197,3.6289974069-6.1091389706,2.917795608-11.4265169621,6.6053107784-13.7472795009,13.8691510014Z"/>
      <path class="cls-1" d="M18.4914138407,40.4672613788c-3.6919520285-2.9375976303-8.7700595957-5.3214157343-14.5507219803-8.6727950314,1.5913283901,2.2208579119,3.5050340451,4.2743948696,5.4266532876,6.2406575703,1.3359275716,1.3651825709,2.7281008999,2.760123306,4.0794743905,4.0960260299h-.0001226853c2.8729238621,2.8404122679,5.5990866454,5.4571211627,7.1325747586,6.9174919664.9052526103-.8984536727,1.838342351-1.8289794467,2.7457846602-2.7395494536-1.0769762571-2.3146453585-2.730282834-4.1682395063-4.8336424314-5.8418310816Z"/>
    </g>
  </g>
  <path class="cls-2" d="M29.7841600622,33.9503427377l-12.0455293974-12.0455293974c-.2805294267-.2805294267-.2805294267-.7353574932,0-1.0158869199l2.0317768875-2.0317768875c.2805294267-.2805294267.7353574932-.2805294267,1.0158869199,0l12.0455293974,12.0455293974c.2805294267.2805294267.2805294267.7353574932,0,1.0158869199l-2.0317768875,2.0317768875c-.2805294267.2805294267-.7353574932.2805294267-1.0158869199,0ZM9.7566550422,33.9503427377l-2.0317768875-2.0317768875c-.2805294267-.2805294267-.2805294267-.7353574932,0-1.0158869199l8.99786559-8.9978655901c.2805294267-.2805294267.2805294267-.7353574932,0-1.0158869199l-1.4512694956-1.4512694956c-.2805294267-.2805294267-.7353574932-.2805294267-1.0158869199,0l-.0000010159.0000010159c-.2805294267.2805294267-.7353574932.2805294267-1.0158869199,0l-.1161398617-.1161398617c-.4525292923-.4525292923-1.2262839899-.1320296026-1.2262839899.50794346v.9433265436c0,.1905157539-.0756820885.3732284785-.21039707.50794346l-.2975474058.2975474058c-.2805294267.2805294267-.7353574932.2805294267-1.0158869199,0l-3.3742002312-3.3742002312c-.2805294267-.2805294267-.2805294267-.7353574932,0-1.0158869199l.2975474058-.2975474058c.1347149815-.1347149815.3174277061-.21039707.50794346-.21039707h2.6775539935l-1.3061421397-1.3061421397c-.2805294267-.2805294267-.2805294267-.7353574932,0-1.0158869199l4.644059643-4.644059643c.483756529-.4837554217,1.0037936627-.8344793758,1.5601136157-1.0521696478s1.1247330718-.3265354079,1.7052404637-.3265354079,1.1489205107.108845136,1.7052404637.3265354079c.3237666182.1266912013.635244255.2984408764.9344333468.5152485887.3537547022.2563487433.3838113909.7787899371.0748962994,1.0877050286l-2.2791900738,2.2791900738c-.2805294267.2805294267-.2805294267.7353574932,0,1.0158869199l.7981986797.7981986797c.2805294267.2805294267.2805294267.7353574932,0,1.0158869199l-.0000010159.0000010159c-.2805294267.2805294267-.2805294267.7353574932,0,1.0158869199l1.4512694956,1.4512694956c.2805294267.2805294267.7353574932.2805294267,1.0158869199,0l2.7574106194-2.7574106194c-.0967519701-.2660651498-.1753608698-.5442256799-.235831128-.8344793758s-.09070428-.5805073919-.09070428-.8707610878c0-1.4270799336.4898031119-2.6304241195,1.4694093357-3.6100303433s2.1829504097-1.4694093357,3.6100303433-1.4694093357c.3628171199,0,.7074933839.036281712,1.0340287918.108845136s.659118506.18140856.9977470798.3265354079l-3.0839460273,3.0839460273c-.2805294267.2805294267-.2805294267.7353574932,0,1.0158869199l1.5963963436,1.5963963436c.2805294267.2805294267.7353574932.2805294267,1.0158869199,0l3.0839460273-3.0839460273c.1693153941.3386285738.2842060058.6712116719.3446762639.9977470798s.09070428.6712116719.09070428,1.0340287918c0,1.4270799336-.4898031119,2.6304241195-1.4694093357,3.6100303433s-2.1829504097,1.4694093357-3.6100303433,1.4694093357c-.2902536959,0-.5805073919-.0241885461-.8707610878-.072563424s-.568414226-.1330336821-.8344793758-.2539719839l-15.8188269367,15.8188269367c-.2805294267.2805294267-.7353574932.2805294267-1.0158869199,0Z"/>
</svg>